<?xml version="1.0" encoding="utf-8"?>
<!-- Generator: Adobe Illustrator 18.1.1, SVG Export Plug-In . SVG Version: 6.00 Build 0)  -->
<svg version="1.1" id="Laag_1" xmlns="http://www.w3.org/2000/svg" xmlns:xlink="http://www.w3.org/1999/xlink" x="0px" y="0px"
	 viewBox="0 1091.8 595.3 115.8" enable-background="new 0 1091.8 595.3 115.8" xml:space="preserve">
<g>
	<ellipse fill="#DFDFDF" cx="53.2" cy="1198.2" rx="23.8" ry="4.1"/>
	<g>
		<g>
			<circle id="XMLID_1_" fill="#DA5515" cx="53.2" cy="1145" r="53.2"/>
		</g>
		<g>
			<g>
				<g>
					<defs>
						<circle id="SVGID_1_" cx="53.2" cy="1145" r="53.2"/>
					</defs>
					<clipPath id="SVGID_2_">
						<use xlink:href="#SVGID_1_"  overflow="visible"/>
					</clipPath>
					<path clip-path="url(#SVGID_2_)" fill="#993E08" d="M21.5,1128.3c-1.6-0.2-2.5-0.2-3,0s-0.5,0.5-0.5,0.9
						c0.2,0.5,0.7,1.1,1.6,2.1c0.5,0.5,0.7,0.9,0.9,1.1l38.6,41.1l50-26.1l1.1-0.9c1.1-0.7,2.1-1.1,2.3-1.4c0.5-0.2,0.5-0.7,0-0.9
						c-0.2-0.5-1.4-0.7-3-0.9L21.5,1128.3z"/>
				</g>
			</g>
		</g>
		<g>
			<g>
				<g>
					<defs>
						<circle id="SVGID_3_" cx="53.2" cy="1145" r="53.2"/>
					</defs>
					<clipPath id="SVGID_4_">
						<use xlink:href="#SVGID_3_"  overflow="visible"/>
					</clipPath>
					<path clip-path="url(#SVGID_4_)" fill="#993E08" d="M14.2,1135.2L5.7,1185c-0.2,1.4,0,3,0.9,4.8c0.9,1.6,2.1,2.7,3.2,2.7
						l89.8,15.1c1.1,0.2,2.5-0.5,3.9-1.6c1.4-1.4,2.3-2.7,2.5-4.1l8.5-49.8L57.8,1182L14.2,1135.2z"/>
				</g>
			</g>
		</g>
	</g>
	<path d="M591.2,1157.3c2.3,0,4.1,1.8,4.1,4.1s-1.8,4.1-4.1,4.1c-2.3,0-4.1-1.8-4.1-4.1C587.1,1159.2,588.9,1157.3,591.2,1157.3
		L591.2,1157.3z M591.2,1158c-1.8,0-3.2,1.6-3.2,3.4c0,2.1,1.4,3.4,3.2,3.4s3.2-1.6,3.2-3.4C594.4,1159.6,593,1158,591.2,1158
		L591.2,1158z M590.3,1164h-0.7v-4.6c0.5,0,0.7,0,1.4,0c0.7,0,1.1,0.2,1.4,0.5c0.3,0.3,0.5,0.5,0.5,0.9c0,0.7-0.5,0.9-0.9,1.1l0,0
		c0.5,0,0.7,0.5,0.7,1.1c0,0.7,0.2,0.9,0.2,1.1h-0.7c0-0.2-0.2-0.5-0.2-1.1c0-0.7-0.5-0.9-0.9-0.9h-0.5v1.8L590.3,1164L590.3,1164z
		 M590.3,1161.5h0.5c0.7,0,1.1-0.2,1.1-0.7s-0.2-0.9-1.1-0.9c-0.2,0-0.5,0-0.5,0V1161.5z"/>
	<g>
		<path d="M165.8,1165.8c-2.1,0-3.4-1.6-3.4-3.7v-22.9l-10.5,15.9c-0.7,0.9-1.8,1.6-3,1.6c-1.1,0-2.3-0.5-3-1.6l-10.5-15.8v22.9
			c0,2.1-1.6,3.7-3.7,3.7c-2.1,0-3.4-1.6-3.4-3.7v-34.5c0-1.6,0.9-3,2.5-3.4c1.6-0.5,3,0.2,3.9,1.4l13.9,21.5l13.9-21.5
			c0.9-1.4,2.5-1.8,3.9-1.4c1.6,0.5,2.5,1.8,2.5,3.4v34.5C169.5,1164.2,167.9,1165.8,165.8,1165.8z"/>
		<path d="M209.9,1124.9c1.6,1.1,1.6,3.4,0.5,5l-13.3,18.3v13.9c0,2.1-1.6,3.7-3.4,3.7c-1.8,0-3.7-1.6-3.7-3.7v-13.9l-13.3-18.3
			c-1.1-1.6-1.1-3.7,0.5-5c1.6-1.4,3.9-1.1,5,0.5l11.4,16l11.4-16C206.2,1123.8,208.5,1123.5,209.9,1124.9z"/>
		<path d="M255.2,1165.8c-2.1,0-3.7-1.6-3.7-3.7v-22.9L241,1155c-0.7,0.9-1.8,1.6-3,1.6c-1.1,0-2.3-0.5-3-1.6l-10.5-15.8v22.9
			c0,2.1-1.6,3.7-3.4,3.7c-1.8,0-3.7-1.6-3.7-3.7v-34.5c0-1.6,0.9-3,2.5-3.4c1.6-0.4,3,0.2,3.9,1.4l13.9,21.5l13.9-21.5
			c0.9-1.4,2.5-1.8,3.9-1.4c1.6,0.5,2.5,1.8,2.5,3.4v34.5C258.8,1164.2,257.2,1165.8,255.2,1165.8z"/>
		<path d="M301.1,1160.8c0.7,1.8,0,3.9-1.8,4.6s-3.9,0-4.6-1.8l-2.7-6.6h-16.7l-2.7,6.6c-0.5,1.4-1.8,2.3-3.2,2.3
			c-2.3,0-4.3-2.3-3.2-4.8l14.4-34.5c0.5-1.4,1.8-2.3,3.2-2.3c1.4,0,2.7,0.9,3.2,2.3L301.1,1160.8z M278.2,1149.8h10.7l-5.3-13
			L278.2,1149.8z"/>
		<path d="M311.8,1165.8c-2.1,0-3.4-1.6-3.4-3.7v-34.5c0-2.1,1.6-3.4,3.4-3.4s3.7,1.6,3.7,3.4v34.5
			C315.5,1164.2,313.9,1165.8,311.8,1165.8z"/>
		<path d="M348.6,1165.3h-19.9c-1.8,0-3.4-1.6-3.4-3.4v-34.3c0-2.1,1.6-3.4,3.4-3.4c2.1,0,3.4,1.6,3.4,3.4v30.8h16.2
			c2.1,0,3.4,1.6,3.4,3.7C352.3,1164,350.7,1165.3,348.6,1165.3z"/>
		<path d="M395.9,1165.8c-2.1,0-3.4-1.6-3.4-3.7v-22.9L382,1155c-0.7,0.9-1.8,1.6-3,1.6c-1.1,0-2.3-0.5-3-1.6l-10.5-15.8v22.9
			c0,2.1-1.6,3.7-3.4,3.7s-3.4-1.6-3.4-3.7v-34.5c0-1.6,0.9-3,2.5-3.4c1.6-0.4,3,0.2,3.9,1.4l13.9,21.5l13.9-21.5
			c0.9-1.4,2.5-1.8,3.9-1.4c1.6,0.5,2.5,1.8,2.5,3.4v34.5C399.3,1164.2,397.7,1165.8,395.9,1165.8z"/>
		<path d="M441.7,1160.8c0.7,1.8,0,3.9-1.8,4.6s-3.9,0-4.6-1.8l-2.7-6.6h-16.9l-2.7,6.6c-0.5,1.4-1.8,2.3-3.2,2.3
			c-2.3,0-4.3-2.3-3.2-4.8l14.4-34.5c0.5-1.4,1.8-2.3,3.2-2.3c1.4,0,2.7,0.9,3.2,2.3L441.7,1160.8z M418.7,1149.8h10.7l-5.3-13
			L418.7,1149.8z"/>
		<path d="M472.1,1148.2l6.4,12.6c0.9,1.6,0.2,3.9-1.6,4.8c-0.5,0.2-1.1,0.5-1.6,0.5c-1.4,0-2.5-0.7-3.2-2.1l-7.8-15.3h-8.5v13.7
			c0,2.1-1.6,3.7-3.4,3.7s-3.4-1.6-3.4-3.7v-34.3c0-2.1,1.6-3.7,3.4-3.7h16.9c6.6,0,12.1,5.5,12.1,12.1
			C481.5,1142,477.4,1146.8,472.1,1148.2z M474.4,1136.3c0-2.7-2.3-5-5-5h-13.5v9.8h13.5C472.1,1141.3,474.4,1139.1,474.4,1136.3z"
			/>
		<path d="M521.5,1160.1c1.1,1.6,0.7,3.9-0.9,5c-0.7,0.5-1.4,0.7-2.1,0.7c-1.1,0-2.3-0.5-3-1.6l-12.1-16.9l-7.1,7.5v7.3
			c0,2.1-1.6,3.7-3.4,3.7s-3.4-1.6-3.4-3.7v-34.5c0-2.1,1.6-3.4,3.4-3.4s3.4,1.6,3.4,3.4v16.9l18.3-19.2c1.4-1.4,3.7-1.6,5-0.2
			c1.3,1.4,1.6,3.4,0.2,5l-11.1,11.9L521.5,1160.1z"/>
		<path d="M554.2,1158.3c2.1,0,3.7,1.6,3.7,3.7s-1.6,3.4-3.7,3.4h-21.9c-2.1,0-3.4-1.6-3.4-3.4v-34c0-2.1,1.6-3.7,3.4-3.7h20.8
			c2.1,0,3.4,1.6,3.4,3.7c0,2.1-1.6,3.4-3.4,3.4H536v9.8h11.7c2.1,0,3.4,1.6,3.4,3.7s-1.6,3.4-3.4,3.4H536v9.8h18.3L554.2,1158.3
			L554.2,1158.3z"/>
		<path d="M587.5,1124.4c2.1,0,3.7,1.6,3.7,3.7s-1.6,3.4-3.7,3.4h-7.7v30.8c0,2.1-1.6,3.7-3.7,3.7c-2.1,0-3.4-1.6-3.4-3.7v-30.8
			h-7.8c-1.8,0-3.4-1.6-3.4-3.4c0-2.1,1.6-3.7,3.4-3.7H587.5z"/>
	</g>
</g>
</svg>
