<?xml version="1.0" encoding="utf-8"?>
<!-- Generator: Adobe Illustrator 18.1.1, SVG Export Plug-In . SVG Version: 6.00 Build 0)  -->
<svg version="1.1" id="Layer_1" xmlns="http://www.w3.org/2000/svg" xmlns:xlink="http://www.w3.org/1999/xlink" x="0px" y="0px"
	 viewBox="-285 409.9 24 21" enable-background="new -285 409.9 24 21" xml:space="preserve">
<g>
	<g>
		<path fill="#444444" d="M-261.8,425.9h-22.5c-0.4,0-0.8,0.4-0.8,0.8v3.4c0,0.4,0.3,0.8,0.8,0.8h22.5c0.4,0,0.8-0.3,0.8-0.8v-3.4
			C-261,426.3-261.3,425.9-261.8,425.9z M-261.8,417.9h-22.5c-0.4,0-0.8,0.4-0.8,0.8v3.4c0,0.4,0.3,0.8,0.8,0.8h22.5
			c0.4,0,0.8-0.3,0.8-0.8v-3.4C-261,418.3-261.3,417.9-261.8,417.9z M-261.8,409.9h-22.5c-0.4,0-0.8,0.4-0.8,0.8v3.4
			c0,0.4,0.3,0.8,0.8,0.8h22.5c0.4,0,0.8-0.3,0.8-0.8v-3.4C-261,410.3-261.3,409.9-261.8,409.9z"/>
	</g>
</g>
</svg>
