<?xml version="1.0" standalone="no"?>
<!DOCTYPE svg PUBLIC "-//W3C//DTD SVG 1.1//EN" "http://www.w3.org/Graphics/SVG/1.1/DTD/svg11.dtd" >
<svg xmlns="http://www.w3.org/2000/svg">
<metadata></metadata>
<defs>
<font id="typolatypola" horiz-adv-x="1138" >
<font-face units-per-em="2048" ascent="1536" descent="-512" />
<missing-glyph horiz-adv-x="569" />
<glyph horiz-adv-x="0" />
<glyph unicode="&#xd;" horiz-adv-x="569" />
<glyph horiz-adv-x="0" />
<glyph horiz-adv-x="0" />
<glyph unicode=" "  horiz-adv-x="569" />
<glyph unicode="&#x09;" horiz-adv-x="569" />
<glyph unicode="&#xa0;" horiz-adv-x="569" />
<glyph unicode="!" horiz-adv-x="681" d="M266 41q0 27 15 41q14 14 34 14q18 0 33 -14q16 -16 17 -41q0 -25 -15 -39q-14 -14 -35 -14q-20 0 -34 14t-15 39zM293 414v1087h47v-1087h-47z" />
<glyph unicode="&#x22;" horiz-adv-x="569" d="M117 1018l119 483h51l-133 -483h-37zM387 1018l123 483h51l-137 -483h-37z" />
<glyph unicode="#" d="M55 508v37h240l57 413h-235v37h239l64 506h39l-66 -506h365l65 506h41l-65 -506h237v-37h-241l-56 -413h238v-37h-242l-63 -508h-41l63 508h-364l-64 -508h-39l64 508h-236zM336 545h362l56 413h-363z" />
<glyph unicode="$" d="M76 162l37 33q37 -43 82 -76t96 -56q100 -47 209 -49v725q-43 14 -84 29.5t-76 32.5q-76 35 -127 80q-55 49 -82 108q-29 68 -29 156q0 80 29 149q31 66 84 115t125 78q70 29 160 39v151h47v-149q125 0 229 -39q104 -41 176 -127l-37 -33q-55 74 -155 117q-98 41 -213 41 v-715q47 -16 88 -30.5t82 -30.5q39 -16 72.5 -36t62.5 -42q57 -47 92 -111q35 -66 35 -155q0 -94 -33 -162q-35 -74 -92 -123q-61 -51 -137 -78q-80 -29 -170 -31v-151h-47v151q-131 2 -242 54q-106 49 -182 135zM150 1143q0 -80 28 -142q31 -55 80 -98q49 -41 111 -67 q31 -14 63.5 -26.5t67.5 -23.5v697q-70 -6 -131 -33q-61 -25 -111 -68q-49 -39 -80 -102q-29 -61 -28 -137zM547 14q39 2 75.5 8.5t71.5 18.5q74 29 123 70q53 47 84 110q31 68 31 148q0 84 -33 141q-35 57 -88 98q-53 39 -123 68q-35 14 -70.5 26.5t-70.5 24.5v-713z" />
<glyph unicode="%" horiz-adv-x="1820" d="M137 1178q0 74 27 133q29 63 72 106q39 43 104 72q55 27 127 27q70 0 129 -27q63 -29 106 -72t72 -106q27 -59 27 -133t-27 -134q-29 -66 -72 -104q-43 -43 -106 -72q-61 -25 -129 -24q-70 0 -127 24q-66 29 -104 72q-43 39 -72 104q-27 59 -27 134zM184 1178 q0 -59 23 -115q20 -51 59 -94q41 -41 90 -62q55 -23 111 -22q57 0 113 22q49 20 90 62q41 41 61 94q23 56 23 115t-23 116q-23 55 -61 95q-39 39 -90 63q-55 23 -113 23q-55 0 -111 -23q-51 -25 -90 -63q-37 -41 -59 -95q-23 -57 -23 -116zM403 -35l934 1594l33 -23 l-932 -1593zM987 317q0 74 27 134q29 63 71 106q39 43 105 72q55 27 127 26q70 0 129 -26q63 -29 106 -72t72 -106q27 -60 27 -134t-27 -133q-29 -66 -72 -104q-43 -43 -106 -72q-61 -25 -129 -24q-70 0 -127 24q-66 29 -105 72q-43 39 -71 104q-27 59 -27 133zM1034 317 q0 -59 23 -114q20 -51 59 -94q41 -41 90 -62q55 -23 111 -22q57 0 113 22q49 20 90 62q41 41 61 94q23 55 23 114t-23 117q-23 55 -61 94q-39 39 -90 64q-55 23 -113 22q-55 0 -111 -22q-51 -25 -90 -64q-37 -41 -59 -94q-23 -57 -23 -117z" />
<glyph unicode="&#x26;" horiz-adv-x="1366" d="M84 379q0 86 27 147t73 119q49 51 117 98q35 23 71 44.5t77 43.5q-29 33 -52.5 62t-42.5 53q-20 27 -35.5 50.5t-25.5 45.5q-23 41 -33 86q-10 47 -10 89q0 72 26 131q27 61 68 100q43 43 105 68q63 23 131 22q61 0 122 -22q63 -27 101 -64q41 -41 65 -96q25 -53 25 -115 q0 -80 -27 -135t-78 -107q-49 -49 -118 -90q-35 -23 -72 -44t-78 -44l457 -489l244 448h51l-262 -475l284 -305h-61l-246 262q-96 -150 -215 -225q-115 -76 -264 -76q-86 0 -166 29q-74 27 -135 82q-57 57 -90 131q-16 41 -24.5 84t-8.5 92zM131 379q0 -88 31 -156 q31 -72 84 -119q51 -47 123 -75q68 -27 151 -27q133 0 248 80q115 82 188 215l-475 504q-70 -33 -133 -76q-61 -41 -110 -92q-51 -51 -78 -115q-29 -63 -29 -139zM297 1217q0 -100 53 -185q25 -41 60.5 -87t81.5 -97q39 20 73.5 39.5t67.5 42.5q33 20 60.5 40.5t51.5 43.5 q49 43 74 98q27 51 27 121q0 61 -21 108q-23 49 -59 84q-18 18 -39.5 31.5t-46.5 24.5q-49 18 -105 18q-29 0 -55 -5t-53 -15q-49 -20 -88 -60q-39 -39 -60 -88q-23 -55 -22 -114z" />
<glyph unicode="'" horiz-adv-x="454" d="M174 1018l119 483h51l-133 -483h-37z" />
<glyph unicode="(" horiz-adv-x="681" d="M113 610q0 63 5 127t15 127q18 123 53 248q37 123 86 231q27 57 55.5 108.5t59.5 98.5l43 -20q-33 -43 -60.5 -93.5t-52.5 -105.5q-27 -55 -47 -113.5t-39 -119.5q-35 -125 -53 -248q-18 -127 -18 -240q0 -117 18 -241q10 -63 23.5 -125t29.5 -123q18 -59 39 -117.5 t47 -116.5q51 -115 113 -196l-43 -23q-63 98 -115 207q-49 109 -86 231q-16 61 -29.5 123t-23.5 127q-10 63 -15 125.5t-5 128.5z" />
<glyph unicode=")" horiz-adv-x="681" d="M115 -309q31 43 59.5 92t52.5 104q25 57 46.5 115.5t37.5 118.5q18 61 30.5 122.5t23.5 125.5q18 125 18 241q0 113 -18 240q-10 63 -22.5 125.5t-31.5 122.5q-16 61 -37.5 119.5t-46.5 113.5q-49 109 -112 199l41 20q33 -47 61.5 -98t52.5 -109q51 -109 86 -231 q33 -117 56 -248q18 -127 18 -254q0 -129 -18 -254q-10 -66 -24.5 -127t-31.5 -123q-35 -123 -86 -231q-49 -109 -114 -207z" />
<glyph unicode="*" horiz-adv-x="796" d="M90 1212l12 37l347 -110v362h38v-362l347 110l12 -37l-350 -106l217 -301l-31 -21l-215 303l-213 -303l-31 21l217 301z" />
<glyph unicode="+" horiz-adv-x="1351" d="M164 625v41h475v487h45v-487h469v-41h-469v-488h-45v488h-475z" />
<glyph unicode="," horiz-adv-x="569" d="M209 -293l121 483h51l-135 -483h-37z" />
<glyph unicode="-" horiz-adv-x="681" d="M82 516v43h381v-43h-381z" />
<glyph unicode="." horiz-adv-x="569" d="M209 43q0 25 14 39t35 14q20 0 35 -14q14 -14 14 -39t-16 -41q-15 -14 -33 -14q-20 0 -35 14q-14 14 -14 41z" />
<glyph unicode="/" horiz-adv-x="569" d="M-6 -16l651 1560l39 -14l-649 -1561z" />
<glyph unicode="0" horiz-adv-x="1112" d="M80 750q0 129 18 268q10 70 27.5 132t44.5 118q49 113 141 186q92 74 236 74q143 0 235 -74t142 -186q51 -106 69 -250q10 -70 15.5 -136.5t5.5 -131.5q0 -66 -5 -131.5t-16 -135.5q-18 -143 -69 -250q-49 -113 -142 -186q-92 -74 -235 -74t-236 74q-92 74 -141 186 q-27 55 -44 118t-28 132q-18 137 -18 267zM127 750q0 -29 1 -62t3 -70q2 -74 19 -157q16 -84 43 -162q14 -39 32.5 -75t40.5 -66q47 -63 117 -103q72 -39 164 -39t164 39q35 20 63.5 46t52.5 57q23 31 41.5 66.5t32.5 74.5q27 78 43 162q6 41 11.5 80t7.5 77q2 37 3 70t1 62 t-1 61.5t-3 71.5t-7.5 77.5t-11.5 79.5q-16 84 -43 162q-14 39 -32.5 75t-41.5 66q-25 31 -53.5 56.5t-62.5 46.5q-72 39 -164 39t-164 -39q-70 -39 -117 -103q-23 -31 -41 -66.5t-32 -74.5q-27 -78 -43 -162t-19 -157q-2 -39 -3 -72t-1 -61z" />
<glyph unicode="1" horiz-adv-x="880" d="M205 1489q43 12 96 12q43 0 86 -12q47 -16 80 -47q35 -33 57 -92q23 -57 23 -144h2v-1206h-47v1208q0 41 -10 92q-12 49 -35 82q-23 35 -64 60q-41 23 -94 22h-23.5t-21.5 -2t-20.5 -4t-20.5 -4z" />
<glyph unicode="2" d="M98 0v55l523 615q117 135 190 250q70 117 70 227q0 82 -27 141q-25 61 -70 107q-45 45 -108 67q-66 25 -135 25q-123 0 -217 -66q-92 -63 -134 -190l-43 14q39 135 146 209q106 74 248 74q82 0 155 -29q74 -29 123 -78t80 -116q29 -68 29 -142q0 -70 -19 -133 q-10 -29 -23.5 -60.5t-31.5 -62.5t-40.5 -63.5t-51.5 -67.5t-59.5 -72.5t-65.5 -78.5l-494 -578h797v-47h-842z" />
<glyph unicode="3" d="M70 213l45 20q45 -96 147 -155q51 -29 108.5 -44.5t121.5 -17.5q90 -2 165 29q35 14 66 34.5t55 45.5q49 51 74 123q25 70 25 147q0 100 -43 168q-41 70 -105 117q-33 23 -67.5 39t-73.5 26q-80 23 -146 23h-45v41h45q35 0 68 5t68 15q72 23 120 64q55 43 88 108 q35 66 35 158q0 76 -26 135q-27 63 -70 103q-43 43 -104 65q-61 25 -132 25q-90 0 -178 -41q-84 -41 -133 -115l-39 27q55 76 146 123q94 47 204 47q41 0 78 -7.5t72 -19.5q70 -25 119 -74q49 -45 80 -114q29 -63 28 -154q0 -31 -3 -62.5t-13 -60.5q-16 -57 -57 -110 q-43 -49 -101 -84q-57 -37 -143 -49v-5q47 -8 89 -20t77 -33q70 -37 116 -90q47 -55 68 -119q23 -59 23 -133q0 -82 -25 -157q-25 -74 -78 -134q-51 -57 -133 -92q-84 -37 -194 -37q-143 0 -256 68q-111 63 -166 172z" />
<glyph unicode="4" d="M74 389v57l678 1055h71v-1069h250v-43h-250v-389h-47v389h-702zM115 432h661v1018h-6z" />
<glyph unicode="5" d="M72 174l37 29q61 -86 149 -137q92 -49 221 -50q72 0 148 29q35 14 68.5 33.5t62.5 48.5q57 55 94 137q37 80 37 191q0 92 -31 172q-31 82 -84 137q-55 59 -137 92q-41 16 -86 24.5t-98 8.5q-72 0 -146 -23q-70 -18 -131 -55l10 690h686v-43h-636l-15 -581q31 14 61.5 24 t65.5 17q35 6 65.5 8t59.5 2q53 0 102.5 -8.5t90.5 -26.5q82 -35 145 -98q61 -66 92 -150q31 -90 31 -190q0 -121 -39 -207q-39 -88 -104 -152q-66 -63 -146 -92q-84 -31 -166 -31q-147 0 -246 56q-96 53 -161 145z" />
<glyph unicode="6" d="M84 426q0 80 29 176q31 96 100 217l395 682h56l-451 -764l4 -2q57 70 143 109q88 41 187 41q90 0 170 -35q41 -18 73.5 -42t61.5 -54q61 -63 90 -146q33 -84 33 -182q0 -100 -33 -180q-31 -82 -92 -144q-57 -59 -141 -94q-86 -35 -181 -35q-49 0 -94 8.5t-86 24.5 q-84 35 -139 94q-61 63 -90 144q-35 86 -35 182zM131 426q0 -90 31 -164q27 -72 82 -131q51 -55 127 -86q74 -31 159 -31q86 0 160 31q70 29 127 86q51 53 82 131q31 74 31 164q0 86 -29 166q-31 78 -82 131q-51 57 -123 88q-68 33 -155 33q-84 0 -158 -33q-76 -31 -129 -88 q-55 -53 -90 -131q-33 -82 -33 -166z" />
<glyph unicode="7" d="M121 1458v43h813v-57l-627 -1444h-51l637 1458h-772z" />
<glyph unicode="8" d="M90 399q0 66 19 127q18 61 59 117q37 51 98 96q29 20 65 37t77 27v4q-135 51 -199 149q-61 100 -62 203q0 82 29 150q31 70 82 116q47 47 123 76q76 27 154 27t153 -27q72 -29 123 -76q25 -25 45.5 -53.5t34.5 -62.5q31 -66 31 -150q0 -106 -64 -203q-61 -100 -196 -149 v-4q82 -25 143 -68q63 -43 98 -94q39 -55 58 -115q18 -61 18 -127q0 -96 -35 -176t-92 -135q-29 -29 -63.5 -48.5t-75.5 -35.5q-84 -31 -178 -31q-96 0 -179 31q-84 31 -139 84q-57 53 -94 135q-33 74 -33 176zM137 399q0 -86 29 -151q27 -72 80 -123q27 -25 57.5 -45.5 t67.5 -34.5q74 -31 164 -31q88 0 161 31q37 14 69 34.5t58 45.5q25 27 45.5 57.5t34.5 65.5q29 73 29 151q0 84 -31 156q-31 70 -86 123q-51 51 -125 80q-76 29 -155 28q-80 0 -156 -28q-70 -27 -127 -80q-53 -53 -84 -123q-31 -72 -31 -156zM193 1159q0 -70 24 -127 q12 -31 30.5 -57.5t41.5 -50.5q47 -47 106 -74q61 -27 137 -27q78 0 138 27q63 29 108 74q43 47 72 108q24 57 24 127q0 74 -26 133q-29 66 -74 105q-49 45 -106 65q-61 25 -136 25q-72 0 -133 -25q-59 -20 -108 -65q-47 -43 -74 -105q-25 -61 -24 -133z" />
<glyph unicode="9" d="M84 1079q0 100 33 181q33 82 92 141q57 61 141 92q86 35 180 35t181 -35q80 -31 139 -90q57 -59 92 -141q33 -89 33 -183q0 -84 -31 -172q-14 -47 -37.5 -99t-58.5 -112l-399 -696h-56l455 776l-4 2q-55 -68 -144 -108q-92 -41 -188 -41q-47 0 -88 8t-82 25 q-39 16 -72.5 39.5t-62.5 54.5q-55 57 -90 141q-33 80 -33 182zM131 1079q0 -94 29 -164q27 -78 80 -129q51 -55 122 -86q70 -31 156 -30q84 0 158 30q74 31 129 86q55 49 90 129q33 72 33 164q0 90 -31 164q-27 72 -82 127q-51 55 -127 86q-72 31 -160 31q-86 0 -159 -31 q-70 -29 -127 -86q-49 -49 -82 -127q-29 -70 -29 -164z" />
<glyph unicode=":" horiz-adv-x="569" d="M209 43q0 25 14 39t35 14q18 0 33 -14q16 -16 16 -39q0 -25 -16 -41q-15 -14 -33 -14q-20 0 -35 14q-14 14 -14 41zM209 922q0 25 14 39t35 14q18 0 33 -14q16 -16 16 -39q0 -25 -16 -41q-15 -15 -33 -15q-20 0 -35 15q-14 14 -14 41z" />
<glyph unicode=";" horiz-adv-x="569" d="M209 -293l121 483h49l-135 -483h-35zM283 922q0 23 16 39q14 14 33 14q20 0 35 -14q14 -14 14 -39q0 -27 -14 -41q-17 -15 -35 -15t-33 15q-16 16 -16 41z" />
<glyph unicode="&#x3c;" horiz-adv-x="1351" d="M164 616v52l987 475v-43l-963 -459l963 -457v-43z" />
<glyph unicode="=" horiz-adv-x="1351" d="M164 442v41h987v-41h-987zM164 805v41h987v-41h-987z" />
<glyph unicode="&#x3e;" horiz-adv-x="1351" d="M164 141v43l962 457l-962 459v43l987 -475v-52z" />
<glyph unicode="?" horiz-adv-x="1024" d="M70 1196q27 162 137 254q106 88 262 88q78 0 149 -25q35 -10 65 -27.5t58 -39.5q51 -45 82 -113t31 -153q0 -63 -16 -119q-14 -47 -43 -88q-14 -20 -28.5 -37.5t-33.5 -34.5q-16 -16 -33.5 -32.5t-37.5 -32.5q-29 -23 -50.5 -43.5t-40.5 -38.5q-16 -18 -29.5 -37 t-23.5 -35t-16 -35.5t-10 -40.5q-6 -41 -7 -90v-94h-47v113q0 16 1 34.5t3 34.5q6 33 23 74q16 39 45 74q29 39 76 73l71 64q16 16 30.5 29.5t29.5 27.5q12 16 23.5 30.5t21.5 31.5q20 31 33 73q12 39 12 97q0 72 -27 135q-29 61 -73 100q-47 41 -109 60q-61 20 -133 20 q-145 0 -238 -86q-90 -86 -114 -219zM418 41q0 27 14 41q15 14 35 14q18 0 33 -14q16 -16 16 -41q0 -23 -16 -39q-12 -14 -33 -14q-20 0 -35 14q-14 14 -14 39z" />
<glyph unicode="@" horiz-adv-x="1638" d="M82 752q0 162 59 309q61 145 168 252q53 53 114.5 95t133.5 73q141 61 307 61q158 0 293 -49q66 -27 124 -60.5t108 -78.5q96 -90 151 -211q53 -125 53 -264q0 -111 -28 -215q-14 -49 -33 -92.5t-45 -77.5q-51 -72 -131 -115q-78 -41 -176 -41q-82 0 -133 45 q-51 43 -39 143h-4q-10 -16 -20.5 -32.5t-22.5 -32.5q-31 -37 -64 -60q-35 -27 -82 -45t-98 -18q-59 0 -109 22q-45 25 -76 62t-43 86q-14 45 -14 100q0 90 29 193q31 100 86 184q55 82 133 135q82 53 174 54q96 0 154 -54q55 -49 67 -141h8l43 156h45l-145 -504 q-4 -14 -7 -30.5t-7 -35.5q-6 -37 -6 -61q0 -70 38 -96q35 -27 93 -27q96 0 168 43q66 39 114 111q45 74 66 159q10 45 15 91t5 94q0 131 -51 245q-51 111 -145 199q-92 84 -217 129q-125 47 -271 47q-164 0 -295 -61q-135 -61 -233 -166q-96 -102 -152 -240 q-55 -135 -55 -280q0 -154 53 -291q55 -139 154 -240q49 -51 107.5 -92t127.5 -70q141 -59 303 -59q184 0 338 80q156 80 261 203l32 -29q-117 -135 -276 -217q-160 -80 -355 -80q-176 0 -323 61q-143 63 -250 172q-102 106 -162 252q-57 141 -57 310zM522 606 q0 -96 49 -160q51 -66 158 -65q90 0 156 63q70 63 114 148q43 82 70 176q23 96 23 147q0 41 -13 82q-12 43 -35 70q-18 27 -59 47q-39 16 -86 16q-90 0 -160 -51q-72 -53 -118 -129q-45 -76 -74 -170q-25 -92 -25 -174z" />
<glyph unicode="A" horiz-adv-x="1480" d="M76 0l651 1501h59l625 -1501h-51l-178 430h-871l-184 -430h-51zM328 471h839l-413 999z" />
<glyph unicode="B" horiz-adv-x="1298" d="M166 -2v1501h407q43 0 85 -4t85 -12q84 -18 150 -58q63 -39 104 -108q41 -70 41 -172q0 -82 -24 -139q-27 -59 -70 -103q-43 -43 -98 -67q-29 -14 -56.5 -23.5t-56.5 -17.5v-4q57 -6 123 -31q70 -27 121 -70q55 -43 94 -119q37 -74 37 -172q0 -123 -45 -198 q-47 -78 -117 -121q-68 -45 -158 -64q-86 -18 -163 -18h-459zM211 41h393q100 0 182 20q41 10 78 25.5t68 36.5q61 45 94 110q35 62 35 160q0 104 -41 174t-105 117q-33 23 -66.5 38t-72.5 26q-74 20 -149 20h-416v-727zM211 811h360q78 0 152 18q39 10 72.5 24.5t62.5 33.5 q59 41 96 102q37 62 37 150q0 90 -35 153q-35 57 -96 97q-29 18 -63.5 30.5t-73.5 22.5q-72 14 -162 14h-350v-645z" />
<glyph unicode="C" horiz-adv-x="1478" d="M98 750q0 160 54 301q27 70 64.5 128t84.5 109q47 49 105.5 88t123.5 68q135 55 293 55q135 0 258 -45q125 -45 213 -137l-28 -33q-20 23 -44 42.5t-51 35.5q-49 33 -112 55q-29 10 -59.5 18.5t-59.5 14.5q-31 4 -59.5 7t-57.5 3q-154 0 -278 -55q-125 -55 -215 -152 q-90 -98 -137 -227q-49 -129 -50 -276q0 -147 47 -279q51 -133 138 -225q86 -94 215 -152q125 -55 280 -55q135 0 262 51q131 49 213 154l33 -31q-94 -111 -227 -162q-141 -53 -281 -53q-164 0 -293 57q-137 57 -229 156q-98 100 -149 238q-53 141 -54 301z" />
<glyph unicode="D" horiz-adv-x="1609" d="M242 -2v1501h426q172 0 325 -43q152 -43 262 -135q111 -90 177 -236q63 -138 63 -335q0 -201 -63 -336q-66 -143 -177 -234q-115 -94 -262 -137q-150 -45 -325 -45h-426zM289 41h366q164 0 312 41q152 45 252 127q104 84 167 219q61 135 62 322q0 186 -62 321 q-63 135 -167 219q-106 88 -252 127q-141 39 -312 39h-366v-1415z" />
<glyph unicode="E" horiz-adv-x="1251" d="M166 0v1501h876v-43h-829v-659l467 -2v-43l-467 4v-715h862v-43h-909z" />
<glyph unicode="F" d="M152 0v1501h856v-43h-809v-659h463v-41h-463v-758h-47z" />
<glyph unicode="G" horiz-adv-x="1593" d="M109 754q0 166 53 299q55 139 151 237q98 98 234 154q135 57 301 57q145 0 266 -45q59 -23 111.5 -52.5t99.5 -66.5l-31 -32q-20 18 -43.5 34.5t-50.5 32.5q-53 29 -113 49q-63 20 -120 29q-31 6 -62 8t-59 2q-156 0 -285 -55t-219 -152q-90 -94 -141 -223 q-49 -129 -49 -276q0 -145 49 -277q45 -127 139 -227q92 -98 223 -154q129 -55 297 -55q72 0 136.5 6t119.5 23q57 16 108.5 34.5t98.5 40.5v557h-438v39h483v2v-2v-39v-579q-86 -47 -213 -84q-125 -39 -297 -39t-307 57q-137 57 -238 160q-100 102 -151 240 q-53 133 -53 297z" />
<glyph unicode="H" horiz-adv-x="1478" d="M164 0v1501h47v-704h1008v704h47v-1501h-47v756h-1008v-756h-47z" />
<glyph unicode="I" horiz-adv-x="569" d="M215 0v1501h47v-1501h-47z" />
<glyph unicode="J" horiz-adv-x="1112" d="M133 197l41 18q43 -96 125 -154q84 -59 190 -59q92 0 156 33q33 14 57.5 34.5t47.5 49.5q20 29 34.5 61.5t24.5 69.5q18 76 18 164v1087h47v-1093q0 -207 -96 -328q-98 -119 -289 -119q-133 0 -227 68q-92 72 -129 168z" />
<glyph unicode="K" horiz-adv-x="1351" d="M242 0v1501h47v-690h2l756 690h67l-764 -690l803 -811h-68l-794 807h-2v-807h-47z" />
<glyph unicode="L" horiz-adv-x="1214" d="M242 -2v1503h47v-1460h747v-43h-794z" />
<glyph unicode="M" horiz-adv-x="1828" d="M178 2v1501h82l653 -1433l654 1433h82v-1501h-47v1448h-9l-663 -1448h-37l-664 1448h-6v-1448h-45z" />
<glyph unicode="N" horiz-adv-x="1478" d="M162 0v1501h67l1080 -1440h6v1440h45v-1501h-68l-1077 1442h-6v-1442h-47z" />
<glyph unicode="O" horiz-adv-x="1761" d="M109 754q0 176 57 317q59 150 162 252q102 104 243 164q143 59 308 59q166 0 309 -59q141 -59 244 -164q102 -102 161 -252q58 -141 58 -317q0 -178 -58 -320q-59 -147 -161 -250q-100 -104 -244 -166q-147 -59 -309 -59q-160 0 -308 59q-143 61 -243 166 q-102 102 -162 250q-57 141 -57 320zM154 754q0 -154 53 -295q53 -137 147 -238q94 -102 228 -160q137 -59 297 -59q162 0 297 59q133 57 229 160q94 100 147 238q52 135 52 295t-52 293q-55 137 -149 237q-98 104 -232 162q-129 57 -292 57q-162 0 -291 -57 q-133 -57 -232 -162q-94 -100 -149 -237q-53 -137 -53 -293z" />
<glyph unicode="P" horiz-adv-x="1333" d="M242 0v1501h407q78 0 162 -18t150 -60q68 -43 110 -114q41 -77 41 -181q0 -100 -35 -170q-35 -74 -94 -120q-57 -49 -139 -74q-74 -27 -168 -27h-387v-737h-47zM289 778h389q70 0 141 19q72 18 125 61q53 41 88 109q35 69 35 161q0 96 -37 158q-39 68 -94 103 q-55 37 -127 55q-35 10 -71 13t-70 3h-379v-682z" />
<glyph unicode="Q" horiz-adv-x="1744" d="M98 766q0 168 60 311q57 143 159 246q104 104 244 162q143 59 309 59t310 -59q143 -63 243 -164q100 -104 160 -246q59 -143 59 -309q0 -123 -40 -246q-41 -121 -113 -217q-68 -96 -168 -166q-96 -70 -209 -90v-4h528v-41l-774 -2q-154 0 -297 53q-137 53 -245 156 q-106 104 -164 242q-61 141 -62 315zM145 766q0 -147 54 -283q55 -133 151 -229q96 -100 230 -156q135 -55 292 -55q168 0 299 59q66 31 123.5 71t104.5 91q98 104 145 232q51 127 51 270q0 147 -53 283q-53 135 -149 235q-47 51 -105.5 90t-124.5 68q-137 59 -293 59 q-160 0 -292 -57q-66 -29 -124.5 -68t-105.5 -90q-96 -96 -149 -233t-54 -287z" />
<glyph unicode="R" horiz-adv-x="1290" d="M199 4v1501h415q41 0 83 -4t85 -10q86 -16 152 -57q63 -39 108 -113q43 -74 43 -186q0 -104 -41 -177q-39 -68 -104 -114q-61 -43 -141 -62q-78 -18 -152 -18l457 -760h-53l-453 758h-352v-758h-47zM246 801h366q209 0 318 88q108 86 108 246q0 98 -39 161 q-37 63 -100 103q-31 18 -66.5 30.5t-76.5 20.5q-78 14 -168 14h-342v-663z" />
<glyph unicode="S" horiz-adv-x="1368" d="M205 143l37 31q78 -84 188 -131q104 -43 221 -43q82 0 156 25q76 25 133 69q57 49 90 113q33 72 33 153q0 86 -37 148q-39 61 -92 100q-61 45 -131 72q-37 14 -74 27.5t-74 23.5q-96 31 -170 64q-41 16 -73.5 36.5t-61.5 42.5q-57 51 -86 115q-31 68 -31 162t37 168 q37 72 101 123q61 47 147 76q77 26 171 26h7q113 0 217 -43q102 -43 168 -125l-37 -30q-59 74 -151 114q-94 41 -199 41q-82 0 -149 -20q-74 -20 -133 -66q-57 -41 -97 -108q-34 -64 -34 -151q0 -91 30 -152q16 -29 37 -54.5t49 -48.5q51 -41 119 -70q35 -14 68.5 -26 t68.5 -25q47 -16 92.5 -31.5t85.5 -31.5q78 -33 146 -80q61 -47 96 -115q35 -62 35 -162q0 -96 -37 -170q-35 -74 -98 -127t-146 -79q-84 -25 -174 -25q-139 0 -256 49q-115 49 -192 135z" />
<glyph unicode="T" horiz-adv-x="1212" d="M72 1458v43h1069v-43h-512v-1458h-45v1458h-512z" />
<glyph unicode="U" horiz-adv-x="1478" d="M168 1387.5v91.5v20h47v-80v-85t1 -132t2 -157.5t2 -161.5t3 -143.5t6 -102.5q6 -66 22.5 -128.5t38 -116.5t43 -96t40.5 -65q29 -37 61.5 -69.5t69.5 -59.5q72 -49 160 -82q71 -24 134 -24h5q66 0 139 24q88 33 160 82q35 27 67.5 60t63.5 69q18 23 39.5 65t42 96 t38 116.5t23.5 128.5q2 37 5 102.5t4 143.5t2.5 161.5t2.5 157.5t1 132.5v84.5v80h47v-20v-91.5t-1 -141.5t-2 -168t-3 -173t-4.5 -153.5t-6.5 -110.5q-10 -82 -30 -158q-27 -92 -61 -165.5t-62 -108.5q-33 -41 -67 -76t-73 -63q-68 -47 -141 -74q-8 -4 -29 -12 q-41 -14 -78.5 -21.5t-74.5 -7.5h-2h-2q-37 0 -75 7t-79 22l-31 12q-70 27 -139 74q-78 59 -139 139q-29 35 -62.5 108.5t-60.5 165.5q-20 76 -31 158q-4 41 -6 110.5t-4 153.5t-3 173t-2 168t-1 141.5z" />
<glyph unicode="V" horiz-adv-x="1314" d="M55 1501h51l547 -1458h4l555 1458h52l-572 -1501h-74z" />
<glyph unicode="W" horiz-adv-x="2082" d="M84 1501h49l432 -1458h6l426 1458h72l436 -1458h6l433 1458h49l-451 -1501h-72l-434 1456h-4l-426 -1456h-74z" />
<glyph unicode="X" horiz-adv-x="1251" d="M37 0l530 786l-479 715h55l451 -678l453 678h53l-477 -715l528 -786h-55l-502 750l-502 -750h-55z" />
<glyph unicode="Y" horiz-adv-x="1251" d="M25 1501h55l485 -796l484 796h53l-516 -844v-657h-47v657z" />
<glyph unicode="Z" horiz-adv-x="1251" d="M63 0v57l988 1401h-961v43h1002v-61l-983 -1397h1011v-43h-1057z" />
<glyph unicode="[" horiz-adv-x="681" d="M186 -332v1884h297v-41h-250v-1802h250v-41h-297z" />
<glyph unicode="\" horiz-adv-x="569" d="M-20 1530l38 16l652 -1562l-41 -15z" />
<glyph unicode="]" horiz-adv-x="681" d="M104 -291h250v1802h-250v41h297v-1884h-297v41z" />
<glyph unicode="^" horiz-adv-x="1351" d="M150 514l475 987h51l475 -987h-43l-459 963l-456 -963h-43z" />
<glyph unicode="_" horiz-adv-x="1024" d="M0 -199h1059v-43h-1059v43z" />
<glyph unicode="`" horiz-adv-x="681" d="M92 1501h58l219 -305h-41z" />
<glyph unicode="a" d="M94 483q0 104 35 203q37 94 100 160q63 70 152 106q86 39 194 39q68 0 134 -18q68 -18 122 -55q29 -18 54.5 -40t48.5 -51q23 -27 41 -57.5t35 -64.5q14 -35 25.5 -80t17.5 -93q2 -18 4 -50.5t3 -73.5t1 -87.5v-91.5q0 -106 -2 -229h-49l6 262q-31 -72 -80 -127t-107 -92 q-119 -72 -254 -72q-111 0 -196 39q-88 37 -152 107q-65 68 -98 162q-35 98 -35 204zM141 483q0 -90 29 -180q31 -86 88 -149q29 -35 62.5 -59.5t74.5 -45.5q78 -39 180 -39q96 0 177 37q41 20 75.5 45t63.5 58q59 66 92 149q16 43 24.5 89t8.5 93t-8.5 93.5t-24.5 89.5 q-33 84 -92 149q-29 33 -63.5 57.5t-75.5 44.5q-80 37 -177 37q-100 0 -180 -37q-84 -41 -137 -102q-57 -63 -88 -149q-29 -90 -29 -181z" />
<glyph unicode="b" horiz-adv-x="1251" d="M166 836.5v205.5v541h47l-2 -883q31 72 80 127.5t108 92.5q113 71 250 71h4q109 0 195 -39q88 -37 151 -106q66 -68 99 -162q35 -90 35 -205q0 -104 -35 -203q-37 -94 -101 -159q-59 -68 -151 -107q-86 -39 -193 -39q-72 0 -135 19q-35 10 -64.5 23.5t-58.5 31.5 t-54.5 39.5t-47.5 50.5q-23 27 -40 57.5t-34 65.5q-16 35 -26.5 80t-16.5 92q-4 18 -5 76.5t-3 143.5t-2 186.5zM211 481q0 -94 35 -182q33 -84 92 -149q55 -61 137 -103q82 -37 178 -37q100 0 181 37q82 41 137 103q55 65 86 149q30 83 30 174v6q0 94 -30 180 q-31 84 -86 150q-55 63 -137 104q-78 39 -181 39q-96 0 -178 -37q-82 -41 -137 -102q-59 -66 -92 -149q-35 -88 -35 -183z" />
<glyph unicode="c" horiz-adv-x="1050" d="M96 479q0 109 37 205q35 92 103 162q72 72 155 106q86 39 195 39q96 0 176 -33q84 -35 141 -94l-37 -30q-49 53 -127 88q-72 30 -148 30h-5q-104 0 -185 -39q-41 -20 -75.5 -44.5t-63.5 -59.5q-29 -33 -50.5 -70t-37.5 -80q-31 -86 -31 -180t31 -180q16 -43 37.5 -80 t50.5 -69q29 -33 63.5 -57.5t75.5 -45.5q82 -37 185 -37q84 0 157 27q78 29 131 82l33 -29q-33 -33 -69.5 -54.5t-77.5 -37.5q-82 -27 -174 -27q-106 0 -195 37q-88 37 -155 105q-68 70 -103 161q-37 92 -37 205z" />
<glyph unicode="d" horiz-adv-x="1251" d="M115 479q0 106 35 205q37 94 98 162q68 72 153 106q86 39 195 39q135 0 254 -71q59 -37 107.5 -92.5t80.5 -127.5l-4 883h49v-541q0 -104 -1 -205.5t-2 -186.5t-3 -143t-4 -77q-6 -47 -17.5 -92t-25.5 -80q-16 -35 -34.5 -65.5t-41.5 -57.5q-45 -53 -102 -90 q-55 -37 -121 -55q-68 -18 -135 -19q-106 0 -193 39q-90 37 -153 107q-31 35 -56.5 73.5t-41.5 85.5q-37 94 -37 203zM162 479q0 -94 31 -180q31 -84 86 -149q29 -33 62.5 -57.5t74.5 -45.5q80 -37 180 -37q96 0 176 37q41 20 76 45t63 58q59 66 93 149q32 82 32 176v6 q0 98 -32 183q-33 84 -93 149q-29 33 -63.5 57.5t-75.5 44.5q-80 37 -176 37q-102 0 -180 -39q-41 -20 -75 -44.5t-62 -59.5q-55 -66 -86 -150q-31 -86 -31 -180z" />
<glyph unicode="e" d="M92 492q0 106 35 200q37 92 98 160t146 102q86 37 180 37q115 0 199 -39q84 -41 139 -104q53 -63 82 -148q28 -83 28 -163v-5v-40h-862q0 -45 7.5 -88.5t19.5 -86.5q27 -86 80 -153q51 -68 135 -111q86 -41 192 -41q117 0 201 45q90 47 154 131l32 -28q-72 -92 -165 -142 q-92 -47 -222 -47q-109 0 -194 39q-45 18 -82 45t-70 62q-66 70 -98 166q-35 98 -35 209zM141 532h811q-4 96 -32 170q-31 78 -82 134q-51 53 -125 86q-72 30 -158 30h-6q-111 0 -187 -45q-78 -47 -126 -110q-25 -35 -43.5 -69t-28.5 -71q-12 -35 -17.5 -66.5t-5.5 -58.5z " />
<glyph unicode="f" horiz-adv-x="768" d="M240 963v346q0 84 22 145q20 57 60 92q39 35 79 47q41 14 88 15q53 0 97 -13l-8 -36q-10 4 -21.5 5t-21.5 3t-21.5 2h-21.5q-59 0 -97 -23q-37 -20 -63 -59q-27 -39 -35 -82q-6 -23 -8 -47.5t-2 -46.5v-348h262v-39h-262v-924h-45v924z" />
<glyph unicode="g" horiz-adv-x="1251" d="M115 481q0 55 9 105.5t26 97.5q37 94 100 160q31 35 68.5 61.5t82.5 46.5q88 37 193 37q70 0 135 -18q35 -10 64.5 -23.5t58.5 -32.5q29 -18 54.5 -39.5t47.5 -50.5q23 -27 40.5 -57.5t33.5 -65.5t26.5 -80t16.5 -92q0 -8 1 -32.5t3 -59.5t3 -77t1 -85q2 -100 2 -223 q0 -111 -22 -219q-25 -104 -80 -184q-53 -76 -148 -127q-90 -47 -225 -47q-131 0 -241 47q-53 25 -99.5 57.5t-83.5 75.5l31 33q78 -90 182 -131q96 -41 211 -41q127 0 211 45q82 45 131 123q49 74 68 172q10 47 15 89t7 99l-2 215q-31 -72 -80 -127t-108 -92 q-115 -72 -254 -72q-109 0 -195 39q-88 37 -151 107q-66 68 -98 161q-35 90 -35 205zM160 481q0 -94 30 -180q31 -84 86 -149q55 -63 138 -105q78 -39 180 -39q94 0 178 37q82 41 137 102q59 66 92 150q35 88 35 182t-35 183q-33 84 -92 149q-55 61 -137 102q-84 37 -178 37 q-100 0 -180 -37q-82 -41 -138 -102q-55 -66 -86 -149q-30 -83 -30 -175v-6z" />
<glyph unicode="h" d="M147 0v1583h48v-874h4q20 68 59 120q41 53 90 89q49 37 109 55q57 18 121 18q104 0 167 -35q68 -37 107 -94q37 -55 57 -131q16 -78 17 -149v-582h-47v578q0 59 -13 124q-12 66 -47 123q-35 53 -92 90q-61 37 -149 37q-82 0 -150 -32q-35 -16 -65.5 -40t-55.5 -53 q-51 -59 -82 -147q-30 -87 -30 -192v-7v-481h-48z" />
<glyph unicode="i" horiz-adv-x="454" d="M160 1378q0 20 14 39q14 14 35 15q18 0 33 -15q14 -14 14 -39t-14 -39q-17 -14 -33 -14q-20 0 -35 14q-14 18 -14 39zM184 0v963h47v-963h-47z" />
<glyph unicode="j" horiz-adv-x="516" d="M72 -498l8 39q27 -6 51 -6q66 0 105 23q39 25 57 59q20 39 22 84q4 23 4 46.5v45.5v1170h48v-1166q0 -37 -3.5 -69.5t-7.5 -61.5q-8 -51 -34 -94q-27 -35 -74 -57q-47 -18 -117 -19h-31q-16 0 -28 6zM295 1378q0 25 14 39t33 15q20 0 35 -15q14 -14 14 -39q0 -23 -16 -39 q-15 -14 -33 -14t-33 14q-14 14 -14 39z" />
<glyph unicode="k" horiz-adv-x="1024" d="M139 0v1583h45v-1065h2l500 445h64l-508 -447l567 -516h-70l-553 508h-2v-508h-45z" />
<glyph unicode="l" horiz-adv-x="454" d="M166 0v1583h47v-1583h-47z" />
<glyph unicode="m" horiz-adv-x="1705" d="M131 0v2v41v87t1 113.5t2 121t2 108.5t3 78q10 90 39 168t51 110q37 51 82 89q45 37 99 55q53 18 93 18t87 -18q53 -18 100 -55q23 -18 43.5 -40t36.5 -49q18 -27 42 -83t38 -128q14 72 37.5 128.5t42.5 82.5q37 51 82 89q45 37 98 55t93 18t87 -18q53 -18 101 -55 q45 -39 79 -89q12 -16 25.5 -44.5t27 -65.5t24 -80t14.5 -88q2 -29 4 -78t3 -108.5t1 -121t1 -113.5t1 -87v-41v-2h-43v270v211q0 113 -27 199q-29 86 -74 147q-45 59 -110 95q-54 31 -102 31q-7 -1 -13 -1q-54 -4 -119 -32q-33 -14 -59.5 -38t-48.5 -55q-47 -61 -74 -147 q-29 -92 -29 -199v-481h-2h-39h-4v270v211q0 113 -26 199q-29 86 -74 147q-45 59 -111 95q-54 31 -101 31q-6 -1 -12 -1q-52 -4 -118 -32q-35 -14 -61.5 -38t-49.5 -55q-47 -61 -73 -147q-29 -92 -29 -199v-481h-41z" />
<glyph unicode="n" d="M147 2v2v41v87t1.5 113.5t2.5 121t3 108.5t4 78q4 45 15 88t25.5 80t30 65.5t27.5 44.5q20 27 43 48.5t47 40.5q49 37 109 55q57 18 102 18t98 -18q55 -16 109 -55q25 -18 47.5 -40t42.5 -49q12 -16 27.5 -44.5t30 -65.5t25.5 -80t15 -88q2 -29 4 -78t3.5 -108.5 t2.5 -121t1 -113.5v-87v-41v-2h-48v270v211q0 106 -28 199q-16 43 -37 80t-45 67q-49 55 -121 95q-62 31 -115 31q-7 -1 -13 -1q-58 -4 -130 -32q-35 -14 -64.5 -39t-56.5 -54q-51 -59 -82 -147q-30 -87 -30 -192v-7v-481h-46z" />
<glyph unicode="o" d="M78 485q0 111 37 207q37 92 104 160q68 68 160 104q92 37 203 37t202 -37q94 -37 162 -104q66 -70 103 -160q36 -96 36 -207q0 -113 -36 -206q-35 -92 -103 -162t-162 -107q-92 -37 -202 -37q-111 0 -203 37q-94 37 -160 107q-68 68 -104 162q-37 94 -37 206zM125 485 q0 -98 31 -184q16 -43 38.5 -80t53.5 -69q55 -61 143 -103q82 -37 191 -37q106 0 190 37q86 39 146 103q61 68 90 149q32 84 32 184q0 98 -32 183q-29 82 -90 149q-61 63 -146 101q-82 36 -184 36h-6q-109 0 -191 -36q-86 -37 -143 -101q-31 -33 -53.5 -69.5t-38.5 -79.5 q-31 -86 -31 -183z" />
<glyph unicode="p" horiz-adv-x="1251" d="M166 -18v183t2 167t3 130t5 73q6 47 17.5 92t25.5 80q31 74 76 122q23 29 47.5 50.5t52.5 40.5q57 37 123 55q68 18 135 18q102 0 193 -37q92 -41 153 -108q31 -35 56.5 -74t42.5 -86q35 -90 35 -203t-33 -204q-37 -94 -99 -162q-68 -72 -153 -107q-86 -39 -195 -39 q-135 0 -254 72q-59 37 -107 92.5t-81 126.5l4 -764h-49v482zM213 483q0 -98 33 -182t92 -149q55 -61 139 -101q78 -39 176 -39q102 0 181 39q41 20 74.5 45t62.5 60q55 66 86 149q30 86 30 180t-30 181q-31 84 -86 149q-29 33 -63 57.5t-74 45.5q-78 36 -176 36h-5 q-96 0 -176 -36q-41 -20 -75.5 -45t-63.5 -58q-59 -66 -92 -149q-33 -84 -33 -183z" />
<glyph unicode="q" horiz-adv-x="1251" d="M115 485q0 113 35 203q16 47 41.5 86t56.5 74q68 72 153 106q86 39 193 39q68 0 135 -18q63 -18 123 -55q55 -37 102 -91q23 -27 40.5 -57.5t33.5 -64.5q16 -35 26.5 -80t16.5 -92q2 -18 4 -72.5t3 -130.5t2 -167t1 -183v-482h-49l4 764q-33 -72 -81 -127t-107 -92 q-117 -74 -254 -74q-53 0 -101.5 10.5t-93.5 28.5q-92 41 -153 109q-62 68 -99 162q-32 87 -32 197v7zM160 485q0 -94 30 -180q29 -82 86 -151q61 -68 138 -103q78 -39 180 -39q96 0 176 37q41 20 76 45t63 58q59 66 92 149q33 84 33 182t-33 183q-33 84 -92 149 q-55 61 -139 100q-78 39 -176 39q-102 0 -180 -39q-80 -37 -138 -100q-55 -65 -86 -149q-30 -83 -30 -175v-6z" />
<glyph unicode="r" horiz-adv-x="759" d="M154 2v2v41v87t1 113.5t2 121t3 108.5t4 78q4 45 15 88t25.5 80t30 65.5t27.5 44.5q20 27 43 48.5t47 40.5q53 39 109 55q57 18 102 18t99 -18q31 -10 65 -27l-39 -24q-60 31 -112 31q-7 -1 -13 -1q-57 -4 -129 -32q-37 -14 -66.5 -38t-56.5 -55q-25 -31 -45 -67.5 t-37 -79.5q-28 -87 -28 -192v-7v-481h-47z" />
<glyph unicode="s" horiz-adv-x="886" d="M102 137l37 27q104 -147 303 -148q23 0 46.5 3.5t46.5 11.5q49 16 86 45q39 29 63 71q23 49 23 103q0 66 -31 108q-27 39 -76 66q-23 14 -47.5 23.5t-52.5 17.5q-29 8 -54.5 15t-50.5 14q-27 8 -51.5 15t-46.5 17q-49 18 -80 45q-33 29 -55 72q-20 45 -21 105 q0 63 27 108q23 43 65 76q23 16 45.5 27.5t51.5 19.5q49 14 106 14q201 0 297 -139l-41 -23q-51 63 -108 93q-59 30 -143 30h-5q-35 0 -82 -10q-49 -12 -82 -35q-39 -27 -59 -63q-25 -41 -25 -96q0 -66 21 -101q18 -37 55 -61q16 -10 38 -20.5t48 -18.5q49 -16 111 -31 q29 -6 55.5 -14t52.5 -19q53 -20 95 -49q39 -29 65 -74q25 -47 25 -108q0 -66 -25 -117q-27 -51 -70 -88q-45 -35 -98 -53q-59 -18 -123 -19q-53 0 -101 9.5t-91 31.5q-90 41 -144 119z" />
<glyph unicode="t" horiz-adv-x="745" d="M240 1247h47v-282h282v-39h-282v-725q0 -100 47 -142q49 -43 127 -43q59 0 108 19l6 -35q-12 -6 -27.5 -9t-31.5 -7q-35 -6 -65 -7q-115 0 -160 64q-49 63 -49 160z" />
<glyph unicode="u" d="M147 845v87v41v2h46v-273v-208q0 -113 30 -199q31 -88 82 -148q47 -59 121 -94q62 -32 115 -32q5 1 11 1q58 4 130 33q37 14 66.5 38t54.5 54q51 59 82 148q30 83 30 192v7v481h48v-2v-41t-1 -87t-1 -113.5t-1.5 -121t-3.5 -108.5t-4 -78q-4 -45 -16 -89t-26.5 -81 t-30 -65.5t-27.5 -43.5q-39 -51 -88 -88q-49 -35 -111 -57q-57 -16 -101 -16t-97 16q-63 23 -109 57q-49 35 -90 88q-12 14 -27.5 43t-30 66t-25.5 81t-15 89q-2 29 -4 78t-3 108.5t-2.5 121t-1.5 113.5z" />
<glyph unicode="v" horiz-adv-x="1024" d="M35 965h49l358 -918h4l347 918h49l-367 -963h-61z" />
<glyph unicode="w" horiz-adv-x="1478" d="M31 965h47l264 -918h4l309 918h66l311 -918h4l264 918h50l-283 -963h-63l-314 913h-6l-311 -913h-62z" />
<glyph unicode="x" horiz-adv-x="1024" d="M37 2l381 508l-334 455h59l306 -422l303 422h61l-336 -455l387 -508h-59l-359 477l-352 -477h-57z" />
<glyph unicode="y" horiz-adv-x="1024" d="M37 -489l12 38q6 -2 15.5 -4t19.5 -4t21.5 -3t21.5 -1q43 0 76 17q31 16 57 43q10 14 19.5 28.5t17.5 30.5q10 16 16 33.5t13 34.5l92 251l-381 990h51l354 -938l340 938h52l-478 -1280q-33 -88 -90 -140q-55 -49 -143 -49h-20.5t-22.5 4q-20 2 -43 11z" />
<glyph unicode="z" horiz-adv-x="860" d="M68 2v43l637 881h-605v39h650v-45l-631 -879h655v-39h-706z" />
<glyph unicode="{" horiz-adv-x="681" d="M92 592v39q31 0 66 10q33 14 51 37q23 29 35 74q12 49 12 122v414q0 145 63 205q66 59 162 59h101v-41h-101q-90 0 -135 -57q-43 -59 -43 -168v-414q0 -135 -41 -190q-41 -59 -102 -68v-6q61 -8 102 -67q41 -53 41 -191v-416q0 -111 43 -167q43 -57 135 -58h101v-41h-101 q-49 0 -90 15q-43 12 -69 43q-31 31 -48 81q-18 51 -18 127v414q0 74 -12 121q-12 45 -35 76q-18 23 -51 37q-35 10 -66 10z" />
<glyph unicode="|" horiz-adv-x="454" d="M166 -530v2119h47v-2119h-47z" />
<glyph unicode="}" horiz-adv-x="681" d="M104 -291h101q92 0 135 60q43 57 43 165v416q0 135 39 193q39 55 102 67v4q-63 10 -102 68q-39 57 -39 190v414q0 109 -43 168q-43 57 -135 57h-101v41h101q98 0 162 -57q63 -59 63 -207v-414q0 -74 12 -122q6 -23 14.5 -41.5t18.5 -32.5q23 -25 51 -37q16 -4 31.5 -7 t34.5 -3v-39q-18 0 -34 -3t-32 -7q-29 -12 -51 -37q-10 -14 -18 -32.5t-15 -43.5q-12 -47 -12 -121v-414q0 -76 -18 -127q-14 -45 -45 -79q-29 -33 -72 -45q-41 -14 -90 -15h-101v41z" />
<glyph unicode="~" horiz-adv-x="1351" d="M164 559q67 117 137 158q72 41 143 41q57 0 107 -17q51 -18 106 -57q92 -68 150 -86q55 -20 102 -20q84 0 144 53q29 29 54.5 60.5t47.5 66.5l31 -35q-61 -98 -133 -145q-72 -45 -144 -46q-74 0 -116 19q-23 10 -47.5 23.5t-51.5 31.5q-23 16 -43 29.5t-37 23.5 q-35 18 -61 31q-27 12 -51 17q-23 6 -53 6q-88 0 -144 -49q-59 -51 -104 -134z" />
<glyph unicode="&#xad;" horiz-adv-x="681" d="M82 516v43h381v-43h-381z" />
<glyph unicode="&#x2000;" horiz-adv-x="838" />
<glyph unicode="&#x2001;" horiz-adv-x="1677" />
<glyph unicode="&#x2002;" horiz-adv-x="838" />
<glyph unicode="&#x2003;" horiz-adv-x="1677" />
<glyph unicode="&#x2004;" horiz-adv-x="559" />
<glyph unicode="&#x2005;" horiz-adv-x="419" />
<glyph unicode="&#x2006;" horiz-adv-x="279" />
<glyph unicode="&#x2007;" horiz-adv-x="279" />
<glyph unicode="&#x2008;" horiz-adv-x="209" />
<glyph unicode="&#x2009;" horiz-adv-x="335" />
<glyph unicode="&#x200a;" horiz-adv-x="93" />
<glyph unicode="&#x2010;" horiz-adv-x="681" d="M82 516v43h381v-43h-381z" />
<glyph unicode="&#x2011;" horiz-adv-x="681" d="M82 516v43h381v-43h-381z" />
<glyph unicode="&#x2012;" horiz-adv-x="681" d="M82 516v43h381v-43h-381z" />
<glyph unicode="&#x2013;" horiz-adv-x="1324" d="M82 516v43h1024v-43h-1024z" />
<glyph unicode="&#x2014;" horiz-adv-x="2348" d="M82 516v43h2048v-43h-2048z" />
<glyph unicode="&#x202f;" horiz-adv-x="335" />
<glyph unicode="&#x205f;" horiz-adv-x="419" />
<glyph unicode="&#x25fc;" horiz-adv-x="962" d="M0 0v963h963v-963h-963z" />
</font>
</defs>
</svg>
